<?xml version="1.0" encoding="UTF-8" standalone="no"?>
<svg
   width="208.95999908447266mm"
   height="124.30000305175778mm"
   viewBox="-97.95999908447266 -32.99999999999999 208.95999908447266 124.30000305175778"
   version="1.1"
   id="svg1"
   sodipodi:docname="LaserClassifier.svg"
   inkscape:version="1.3.2 (091e20e, 2023-11-25, custom)"
   xmlns:inkscape="http://www.inkscape.org/namespaces/inkscape"
   xmlns:sodipodi="http://sodipodi.sourceforge.net/DTD/sodipodi-0.dtd"
   xmlns="http://www.w3.org/2000/svg"
   xmlns:svg="http://www.w3.org/2000/svg">
  <defs
     id="defs1" />
  <sodipodi:namedview
     id="namedview1"
     pagecolor="#ffffff"
     bordercolor="#000000"
     borderopacity="0.25"
     inkscape:showpageshadow="2"
     inkscape:pageopacity="0.0"
     inkscape:pagecheckerboard="0"
     inkscape:deskcolor="#d1d1d1"
     inkscape:document-units="mm"
     inkscape:zoom="2.2286303"
     inkscape:cx="394.86137"
     inkscape:cy="234.89764"
     inkscape:window-width="2400"
     inkscape:window-height="1261"
     inkscape:window-x="2391"
     inkscape:window-y="-9"
     inkscape:window-maximized="1"
     inkscape:current-layer="svg1" />
  <title
     id="title1">svgOutput</title>
  <desc
     id="desc1">made with tinkercad</desc>
  <path
     d="M -3.2990000247955322 35.99999999999999 L -3 35.99999999999999 L 3.177000045776367 35.99999999999999 L 100.91999816894531 35.99999999999999 L 109 35.99999999999999 L 109 60.29999923706053 L 100.91999816894531 60.29999923706053 L 3.177000045776367 60.29999923706053 L -3 60.29999923706053 L -3.2990000247955322 60.29999923706053 L -3.2990000247955322 55.94300079345702 L -3.2990000247955322 55.7840003967285 L -3.2990000247955322 55.30300140380858 L -3.2990000247955322 51.298000335693345 L -3.2990000247955322 51.138000488281236 L -3.2990000247955322 45.8839988708496 L -3.2990000247955322 42.29800033569335 L -3.2990000247955322 41.23899841308593 L -3.2990000247955322 35.99999999999999 M 110 1.2999999523162842 L 109.29900360107422 1.2999999523162842 L 103.52400207519531 1.2999999523162842 L 5.781000137329102 1.2999999523162842 L -2.2990000247955322 1.2999999523162842 L -2.2990000247955322 -22.999999999999996 L 5.781000137329102 -22.999999999999996 L 103.52400207519531 -22.999999999999996 L 109.29900360107422 -22.999999999999996 L 110 -22.999999999999996 L 110 -18.64399909973144 L 110 -18.483999252319332 L 110 -18.00300025939941 L 110 -13.998000144958493 L 110 -13.838999748229977 L 110 -8.58399963378906 L 110 -4.998000144958495 L 110 -3.997999906539916 L 110 -3.938999891281127 L 110 1.2999999523162842 M 109 65.99999999999999 L 109.16000366210938 65.99999999999999 L 109.16000366210938 75.16200256347655 L 109.16000366210938 85.00199890136717 L 109.16000366210938 90.3000030517578 L 69.05599975585938 90.3000030517578 L 51.65599822998047 90.3000030517578 L 21.156999588012695 90.3000030517578 L 20.55699920654297 90.3000030517578 L -3 90.3000030517578 L -3 65.99999999999999 L 20.55699920654297 65.99999999999999 L 21.156999588012695 65.99999999999999 L 26.226999282836914 65.99999999999999 L 51.65599822998047 65.99999999999999 L 63.72999954223633 65.99999999999999 L 68.75700378417969 65.99999999999999 L 69.05599975585938 65.99999999999999 L 74.12699890136719 65.99999999999999 L 109 65.99999999999999 M 109.29900360107422 29.999999999999993 L 109 29.999999999999993 L 101.21900177001953 29.999999999999993 L 3.4760000705718994 29.999999999999993 L -3 29.999999999999993 L -3 25.643999099731438 L -3 25.48399925231933 L -3 25.003000259399407 L -3 20.997999191284176 L -3 20.839000701904293 L -3 15.583999633789059 L -3 11.998000144958494 L -3 10.939000129699705 L -3 5.699999809265136 L -2.2990000247955322 5.699999809265136 L 3.4760000705718994 5.699999809265136 L 101.21900177001953 5.699999809265136 L 109.29900360107422 5.699999809265136 L 109.29900360107422 29.999999999999993 M -29.13599967956543 -31.999999999999993 L -29.13599967956543 -16.999999999999996 L -76 -16.999999999999996 L -76 -31.999999999999993 L -29.13599967956543 -31.999999999999993 M -96.95999908447266 -10.999999999999998 L -10 -10.999999999999998 L -10 83.06099700927733 L -96.95999908447266 83.06099700927733 L -96.95999908447266 -10.999999999999998 M 69.54100036621094 74.20400238037108 L 69.63200378417969 74.28737640380858 L 70.10199737548828 74.71800231933592 L 70.80799865722656 75.04799652099608 L 71.59200286865234 75.16200256347655 L 72.375 75.04799652099608 L 73.08200073242188 74.71800231933592 L 73.64299774169922 74.20400238037108 L 73.72799682617188 74.05100250244139 L 74.00299835205078 73.55599975585936 L 74.12699890136719 72.83899688720702 L 74.00299835205078 72.12100219726561 L 73.72799682617188 71.62599945068358 L 73.64299774169922 71.47299957275389 L 73.08200073242188 70.95999908447264 L 72.375 70.62999725341795 L 71.59200286865234 70.51599884033202 L 70.80799865722656 70.62999725341795 L 70.10199737548828 70.95999908447264 L 69.63200378417969 71.38978576660155 L 69.54100036621094 71.47299957275389 L 69.18099975585938 72.12100219726561 L 69.05599975585938 72.83899688720702 L 69.18099975585938 73.55599975585936 L 69.54100036621094 74.20400238037108 M 69.05599975585938 81.64700317382811 L 68.88099670410156 81.96199798583983 L 68.75700378417969 82.67900085449217 L 68.88099670410156 83.39700317382811 L 69.05599975585938 83.71199798583983 L 69.24099731445312 84.0449981689453 L 69.63200378417969 84.4025421142578 L 69.802001953125 84.55799865722655 L 70.50800323486328 84.88800048828124 L 71.29199981689453 85.00199890136717 L 72.07499694824219 84.88800048828124 L 72.78199768066406 84.55799865722655 L 73.34300231933594 84.0449981689453 L 73.7030029296875 83.39700317382811 L 73.72799682617188 83.25224304199217 L 73.8270034790039 82.67900085449217 L 73.72799682617188 82.10655975341795 L 73.7030029296875 81.96199798583983 L 73.34300231933594 81.31400299072264 L 72.78199768066406 80.8000030517578 L 72.07499694824219 80.47000122070311 L 71.29199981689453 80.35700225830077 L 70.50800323486328 80.47000122070311 L 69.802001953125 80.8000030517578 L 69.63200378417969 80.95575714111327 L 69.24099731445312 81.31400299072264 L 69.05599975585938 81.64700317382811 M 55.827999114990234 83.68399810791014 L 57.69300079345703 84.00199890136717 L 59.55799865722656 83.68399810791014 L 61.24100112915039 82.76000213623045 L 62.02141571044922 81.9199981689453 L 62.57699966430664 81.32199859619139 L 63.433998107910156 79.50900268554686 L 63.72999954223633 77.49999999999999 L 63.433998107910156 75.48999786376952 L 62.57699966430664 73.67800140380858 L 61.24100112915039 72.23899841308592 L 59.55799865722656 71.31500244140624 L 57.69300079345703 70.9970016479492 L 57.34400177001953 71.05651092529295 L 55.827999114990234 71.31500244140624 L 54.14500045776367 72.23899841308592 L 52.808998107910156 73.67800140380858 L 51.95199966430664 75.48999786376952 L 51.65599822998047 77.49999999999999 L 51.95199966430664 79.50900268554686 L 52.808998107910156 81.32199859619139 L 53.36458206176758 81.9199981689453 L 54.14500045776367 82.76000213623045 L 55.827999114990234 83.68399810791014 M 22.908000946044922 74.88800048828124 L 23.691999435424805 75.00199890136717 L 24.475000381469727 74.88800048828124 L 24.576000213623047 74.84085845947264 L 25.18199920654297 74.55799865722655 L 25.743000030517578 74.0449981689453 L 26.10300064086914 73.39700317382811 L 26.226999282836914 72.67900085449217 L 26.10300064086914 71.96199798583983 L 25.743000030517578 71.31400299072264 L 25.18199920654297 70.8000030517578 L 24.576000213623047 70.5171432495117 L 24.475000381469727 70.47000122070311 L 23.691999435424805 70.35700225830077 L 22.908000946044922 70.47000122070311 L 22.20199966430664 70.8000030517578 L 21.641000747680664 71.31400299072264 L 21.2810001373291 71.96199798583983 L 21.156999588012695 72.67900085449217 L 21.2810001373291 73.39700317382811 L 21.641000747680664 74.0449981689453 L 22.20199966430664 74.55799865722655 L 22.908000946044922 74.88800048828124 M 22.308000564575195 84.94799804687499 L 23.091999053955078 85.06199645996092 L 23.875 84.94799804687499 L 24.576000213623047 84.6208038330078 L 24.582000732421875 84.6179962158203 L 25.14299964904785 84.10399627685545 L 25.503000259399414 83.45600128173827 L 25.62700080871582 82.73899841308592 L 25.503000259399414 82.02100372314452 L 25.14299964904785 81.3730010986328 L 24.582000732421875 80.86000061035155 L 24.576000213623047 80.85720062255858 L 23.875 80.52999877929686 L 23.091999053955078 80.41600036621092 L 22.308000564575195 80.52999877929686 L 21.601999282836914 80.86000061035155 L 21.156999588012695 81.2669219970703 L 21.041000366210938 81.3730010986328 L 20.680999755859375 82.02100372314452 L 20.55699920654297 82.73899841308592 L 20.680999755859375 83.45600128173827 L 21.041000366210938 84.10399627685545 L 21.156999588012695 84.2102813720703 L 21.601999282836914 84.6179962158203 L 22.308000564575195 84.94799804687499 z"
     fill="none"
     stroke="rgb(255,0,0)"
     stroke-width="0.001mm"
     id="path1"
     style="fill:#917c6f" />
</svg>
